<svg id="svg" version="1.1" xmlns="http://www.w3.org/2000/svg" xmlns:xlink="http://www.w3.org/1999/xlink" width="400" height="400" viewBox="0, 0, 400,400"><g id="svgg"><path id="path0" d="M90.009 183.438 L 90.009 280.828 103.870 280.828 L 117.732 280.828 117.732 294.690 L 117.732 308.552 200.990 308.462 L 284.248 308.371 284.105 294.599 L 283.962 280.828 298.237 280.828 L 312.511 280.828 312.511 183.438 L 312.511 86.049 298.290 86.049 L 284.068 86.049 284.068 99.910 L 284.068 113.771 200.842 113.771 L 117.615 113.771 117.858 99.910 L 118.102 86.049 104.055 86.049 L 90.009 86.049 90.009 183.438 M145.455 225.387 L 145.455 253.114 131.683 253.020 L 117.912 252.925 117.820 225.293 L 117.727 197.660 131.591 197.660 L 145.455 197.660 145.455 225.387 M284.068 225.387 L 284.068 253.114 270.297 253.020 L 256.526 252.925 256.433 225.293 L 256.341 197.660 270.205 197.660 L 284.068 197.660 284.068 225.387 " stroke="none" fill="#0001ea" fill-rule="evenodd"></path><path id="path1" d="M90.089 85.889 L 89.289 86.449 89.289 183.639 C 89.289 280.348,89.292 280.832,90.009 281.548 C 90.638 282.177,91.209 282.268,94.509 282.268 L 98.290 282.268 98.290 290.536 C 98.290 300.611,97.106 299.550,108.347 299.550 L 117.012 299.550 117.012 304.050 C 117.012 308.071,117.089 308.628,117.732 309.271 C 118.563 310.102,283.268 310.444,284.812 309.618 C 285.448 309.278,285.509 308.822,285.509 304.398 L 285.509 299.550 293.273 299.550 C 303.473 299.550,302.430 300.577,302.430 290.536 L 302.430 282.268 307.471 282.268 C 312.031 282.268,312.580 282.200,313.231 281.548 C 314.369 280.410,314.369 87.186,313.231 86.049 C 312.536 85.354,312.031 85.329,298.730 85.329 C 281.819 85.329,283.348 84.772,283.348 90.930 L 283.348 95.410 201.260 95.410 L 119.172 95.410 119.172 90.742 C 119.172 86.495,119.109 86.040,118.476 85.701 C 117.228 85.034,91.063 85.207,90.089 85.889 M117.858 99.910 L 117.615 113.771 200.842 113.771 L 284.068 113.771 284.068 99.910 L 284.068 86.049 298.290 86.049 L 312.511 86.049 312.511 183.438 L 312.511 280.828 298.237 280.828 L 283.962 280.828 284.105 294.599 L 284.248 308.371 200.990 308.462 L 117.732 308.552 117.732 294.690 L 117.732 280.828 103.870 280.828 L 90.009 280.828 90.009 183.438 L 90.009 86.049 104.055 86.049 L 118.102 86.049 117.858 99.910 M117.820 225.293 L 117.912 252.925 131.683 253.020 L 145.455 253.114 145.455 225.387 L 145.455 197.660 131.591 197.660 L 117.727 197.660 117.820 225.293 M256.433 225.293 L 256.526 252.925 270.297 253.020 L 284.068 253.114 284.068 225.387 L 284.068 197.660 270.205 197.660 L 256.341 197.660 256.433 225.293 " stroke="none" fill="#000000" fill-rule="evenodd"></path><path id="path2" d="M90.089 85.889 L 89.289 86.449 89.289 183.639 C 89.289 280.348,89.292 280.832,90.009 281.548 C 90.638 282.177,91.209 282.268,94.509 282.268 L 98.290 282.268 98.290 290.536 C 98.290 300.611,97.106 299.550,108.347 299.550 L 117.012 299.550 117.012 304.050 C 117.012 308.071,117.089 308.628,117.732 309.271 C 118.563 310.102,283.268 310.444,284.812 309.618 C 285.448 309.278,285.509 308.822,285.509 304.398 L 285.509 299.550 293.273 299.550 C 303.473 299.550,302.430 300.577,302.430 290.536 L 302.430 282.268 307.471 282.268 C 312.031 282.268,312.580 282.200,313.231 281.548 C 314.369 280.410,314.369 87.186,313.231 86.049 C 312.536 85.354,312.031 85.329,298.730 85.329 C 281.819 85.329,283.348 84.772,283.348 90.930 L 283.348 95.410 201.260 95.410 L 119.172 95.410 119.172 90.742 C 119.172 86.495,119.109 86.040,118.476 85.701 C 117.228 85.034,91.063 85.207,90.089 85.889 M117.858 99.910 L 117.615 113.771 200.842 113.771 L 284.068 113.771 284.068 99.910 L 284.068 86.049 298.290 86.049 L 312.511 86.049 312.511 183.438 L 312.511 280.828 298.237 280.828 L 283.962 280.828 284.105 294.599 L 284.248 308.371 200.990 308.462 L 117.732 308.552 117.732 294.690 L 117.732 280.828 103.870 280.828 L 90.009 280.828 90.009 183.438 L 90.009 86.049 104.055 86.049 L 118.102 86.049 117.858 99.910 M117.820 225.293 L 117.912 252.925 131.683 253.020 L 145.455 253.114 145.455 225.387 L 145.455 197.660 131.591 197.660 L 117.727 197.660 117.820 225.293 M256.433 225.293 L 256.526 252.925 270.297 253.020 L 284.068 253.114 284.068 225.387 L 284.068 197.660 270.205 197.660 L 256.341 197.660 256.433 225.293 " stroke="none" fill="#000000" fill-rule="evenodd"></path><path id="path3" d="M90.009 183.438 L 90.009 280.828 103.870 280.828 L 117.732 280.828 117.732 294.690 L 117.732 308.552 200.990 308.462 L 284.248 308.371 284.105 294.599 L 283.962 280.828 298.237 280.828 L 312.511 280.828 312.511 183.438 L 312.511 86.049 298.290 86.049 L 284.068 86.049 284.068 99.910 L 284.068 113.771 200.842 113.771 L 117.615 113.771 117.858 99.910 L 118.102 86.049 104.055 86.049 L 90.009 86.049 90.009 183.438 M145.455 225.387 L 145.455 253.114 131.683 253.020 L 117.912 252.925 117.820 225.293 L 117.727 197.660 131.591 197.660 L 145.455 197.660 145.455 225.387 M284.068 225.387 L 284.068 253.114 270.297 253.020 L 256.526 252.925 256.433 225.293 L 256.341 197.660 270.205 197.660 L 284.068 197.660 284.068 225.387 " stroke="none" fill="#0001ea" fill-rule="evenodd"></path><path id="path4" d="M90.009 183.438 L 90.009 280.828 103.870 280.828 L 117.732 280.828 117.732 294.690 L 117.732 308.552 200.990 308.462 L 284.248 308.371 284.105 294.599 L 283.962 280.828 298.237 280.828 L 312.511 280.828 312.511 183.438 L 312.511 86.049 298.290 86.049 L 284.068 86.049 284.068 99.910 L 284.068 113.771 200.842 113.771 L 117.615 113.771 117.858 99.910 L 118.102 86.049 104.055 86.049 L 90.009 86.049 90.009 183.438 M145.455 225.387 L 145.455 253.114 131.683 253.020 L 117.912 252.925 117.820 225.293 L 117.727 197.660 131.591 197.660 L 145.455 197.660 145.455 225.387 M284.068 225.387 L 284.068 253.114 270.297 253.020 L 256.526 252.925 256.433 225.293 L 256.341 197.660 270.205 197.660 L 284.068 197.660 284.068 225.387 " stroke="none" fill="#0001ea" fill-rule="evenodd"></path></g></svg>